HIERARCHY
ROOT Hips
{
  OFFSET 40.9192 92.6879 18.85
  CHANNELS 6 Xposition Yposition Zposition Zrotation Xrotation Yrotation
  JOINT LeftUpLeg
  {
    OFFSET 8.64259 1.95398 -2.38835
    CHANNELS 3 Zrotation Xrotation Yrotation
    JOINT LeftLeg
    {
      OFFSET 43.7702 0 0
      CHANNELS 3 Zrotation Xrotation Yrotation
      JOINT LeftFoot
      {
        OFFSET 40.6238 0 0
        CHANNELS 3 Zrotation Xrotation Yrotation
        JOINT LeftToeBase
        {
          OFFSET 12.7242 0 0
          CHANNELS 3 Zrotation Xrotation Yrotation
          End Site
          {
            OFFSET 0 0 0
          }
        }
      }
    }
  }
  JOINT RightUpLeg
  {
    OFFSET -8.2249 1.95398 -2.59336
    CHANNELS 3 Zrotation Xrotation Yrotation
    JOINT RightLeg
    {
      OFFSET 43.5653 0 0
      CHANNELS 3 Zrotation Xrotation Yrotation
      JOINT RightFoot
      {
        OFFSET 40.6238 0 0
        CHANNELS 3 Zrotation Xrotation Yrotation
        JOINT RightToeBase
        {
          OFFSET 12.7242 0 0
          CHANNELS 3 Zrotation Xrotation Yrotation
          End Site
          {
            OFFSET 0 0 0
          }
        }
      }
    }
  }
  JOINT Spine
  {
    OFFSET 0.165834 0.87714 6.61349
    CHANNELS 3 Zrotation Xrotation Yrotation
    JOINT Spine1
    {
      OFFSET 7.38963 1.71661e-005 0
      CHANNELS 3 Zrotation Xrotation Yrotation
      JOINT Spine2
      {
        OFFSET 11.9445 1.14441e-005 0
        CHANNELS 3 Zrotation Xrotation Yrotation
        JOINT Spine3
        {
          OFFSET 14.7254 4.19617e-005 0
          CHANNELS 3 Zrotation Xrotation Yrotation
          JOINT Spine4
          {
            OFFSET 10.9679 0 0
            CHANNELS 3 Zrotation Xrotation Yrotation
            JOINT RightShoulder
            {
              OFFSET 2.46616 -1.6653 3.69651
              CHANNELS 3 Zrotation Xrotation Yrotation
              JOINT RightArm
              {
                OFFSET 13.0012 0 0
                CHANNELS 3 Zrotation Xrotation Yrotation
                JOINT RightForeArm
                {
                  OFFSET 28.7848 1.52588e-005 0
                  CHANNELS 3 Zrotation Xrotation Yrotation
                  JOINT RightHand
                  {
                    OFFSET 26.5688 1.52588e-005 0
                    CHANNELS 3 Zrotation Xrotation Yrotation
                    End Site
                    {
                      OFFSET 0 0 0
                    }
                  }
                }
              }
            }
            JOINT LeftShoulder
            {
              OFFSET 2.38034 -1.29275 -3.7523
              CHANNELS 3 Zrotation Xrotation Yrotation
              JOINT LeftArm
              {
                OFFSET 16.3182 6.10351e-005 0
                CHANNELS 3 Zrotation Xrotation Yrotation
                JOINT LeftForeArm
                {
                  OFFSET 27.0901 0 0
                  CHANNELS 3 Zrotation Xrotation Yrotation
                  JOINT LeftHand
                  {
                    OFFSET 24.5451 1.52588e-005 0
                    CHANNELS 3 Zrotation Xrotation Yrotation
                    End Site
                    {
                      OFFSET 0 0 0
                    }
                  }
                }
              }
            }
            JOINT Neck
            {
              OFFSET 5.0226 -0.0266342 0
              CHANNELS 3 Zrotation Xrotation Yrotation
              JOINT Head
              {
                OFFSET 6.69363 2.86102e-005 0
                CHANNELS 3 Zrotation Xrotation Yrotation
                End Site
                {
                  OFFSET 0 0 0
                }
              }
            }
          }
        }
      }
    }
  }
}
MOTION
Frames:	9
Frame Time:	0.0416667
-75.4671 94.8201 -84.4558 -128.268 -87.1357 -128.513 -163.929 10.5726 89.6057 -30.6879 -4.46195 -8.20175 72.5473 14.2856 8.00775 33.6454 3.59251 7.17242 173.48 10.1149 81.8447 -21.7303 -17.7434 -5.63965 66.4217 -3.52084 -1.86781 40.8511 0.454139 -3.61957 -0.178979 8.12049 -90.6399 10.6279 -0.650819 -1.21303 -1.04347 -0.703575 -1.18324 -23.5744 -0.256209 -1.35253 -3.56174 -0.256207 -1.35254 94.1892 -45.1598 -95.1686 15.9574 -33.8493 -20.7691 -20.8745 8.9178 -108.843 -23.929 0.350068 -6.50197 -95.8706 -45.618 68.617 -30.7902 9.70956 7.49063 7.83287 3.38774 -55.3192 14.2047 0.251965 -2.01922 -4.83136 4.42894 -5.97833 11.7008 6.76556 13.338 
-76.7014 95.1115 -84.5293 -127.3 -86.8271 -127.466 -164.555 10.2309 90.1066 -29.1425 -2.63553 -7.61092 69.9858 12.9588 11.5446 33.8 3.76955 5.96393 173.294 9.25188 82.4388 -20.2586 -17.9764 -5.15684 66.5379 -3.59553 -1.91943 40.4684 0.454503 -3.42045 -0.174961 8.09766 -90.574 10.6743 -0.612717 -1.08524 -0.996881 -0.659883 -1.05723 -23.5287 -0.258265 -1.21919 -3.51604 -0.258263 -1.21919 94.0115 -45.783 -95.3508 15.7583 -33.4379 -20.2806 -20.8888 8.98146 -108.714 -23.9717 0.3512 -6.4963 -96.0484 -45.7759 68.3969 -30.2038 9.62447 7.34683 8.0561 3.68236 -55.0935 14.6559 0.337391 -1.51155 -5.11577 4.58993 -5.71353 11.9211 6.80115 12.5418 
-77.8295 95.393 -84.5793 -125.996 -86.4833 -126.245 -164.827 10.1712 90.7538 -28.9622 -3.50577 -7.24425 69.7998 11.9075 9.19936 31.9436 2.19146 5.23343 173.059 8.67025 82.8005 -19.3374 -18.5451 -4.7434 66.6494 -3.66139 -1.95767 40.081 0.443625 -3.5317 -0.175512 8.09529 -90.5071 10.6799 -0.583025 -0.954852 -0.991253 -0.624479 -0.928277 -23.5239 -0.269116 -1.08591 -3.51126 -0.269119 -1.08592 93.9129 -46.1932 -95.4395 15.4717 -33.2527 -20.232 -20.5718 8.77797 -108.794 -24.0275 0.364219 -6.56783 -95.9399 -46.1245 68.6803 -29.3337 9.85808 6.68351 8.0214 4.03949 -54.2837 15.2721 0.3767 -1.35969 -4.66743 4.63618 -5.2332 11.3924 6.68551 11.9316 
-78.9169 95.6913 -84.6561 -126.892 -86.2954 -127.376 -165.175 10.0952 91.2937 -28.8816 -5.20543 -6.89324 69.5289 10.413 5.73786 31.9494 2.20476 5.09809 172.831 8.05286 83.0419 -18.4282 -18.9166 -4.40957 66.6472 -3.68217 -1.9778 40.1037 0.425165 -4.05887 -0.194418 8.09599 -90.4139 10.6794 -0.577727 -0.770082 -0.991679 -0.611056 -0.743915 -23.5254 -0.319586 -0.9081 -3.51276 -0.31959 -0.908104 93.8979 -46.685 -95.3784 15.1693 -33.2689 -20.5525 -20.4825 8.62367 -108.595 -23.8732 0.45752 -7.02894 -96.0565 -46.2417 68.5411 -28.5766 9.79988 6.4753 7.54861 3.88181 -53.6746 15.6303 0.39655 -1.29593 -4.58165 4.75034 -5.04335 11.4901 6.76187 11.681 
-79.9394 95.878 -84.7458 -123.253 -85.8521 -123.884 -165.122 9.85014 91.852 -28.3544 -5.93195 -6.78987 69.5075 9.86065 4.11524 30.9596 1.36036 4.97268 172.968 7.69762 83.4943 -17.8416 -19.1028 -4.3235 66.9036 -3.79241 -2.03648 39.1377 0.40991 -4.11119 -0.165152 8.07377 -90.3501 10.7245 -0.490205 -0.650961 -0.946498 -0.518375 -0.628759 -23.4806 -0.271909 -0.76819 -3.46798 -0.271902 -0.768184 93.7454 -46.6959 -95.6218 15.8908 -33.055 -20.0675 -20.5383 8.82491 -108.58 -22.7514 0.3638 -6.69687 -96.044 -46.283 68.574 -28.1873 9.50701 6.44177 7.70018 4.04114 -53.4087 15.3754 0.443105 -0.953024 -4.43934 4.80852 -4.4875 11.1224 6.65268 11.0209 
-80.8148 96.0801 -84.7661 -122.253 -85.6843 -122.982 -165.129 9.54696 92.3221 -27.4959 -6.12257 -6.68058 68.5274 8.97301 4.04247 31.2038 1.63959 4.00053 173.091 7.44621 83.9002 -17.4755 -19.128 -4.23139 66.6556 -3.6937 -1.98546 38.1184 0.399024 -3.86366 -0.183823 8.05871 -90.2859 10.755 -0.497871 -0.522546 -0.91595 -0.520386 -0.500127 -23.4506 -0.317812 -0.648017 -3.43798 -0.317812 -0.648015 93.7694 -46.4769 -95.6217 16.4247 -33.2104 -20.2858 -20.3417 8.35955 -108.5 -23.5857 0.331096 -6.45632 -95.3639 -46.0386 69.5348 -28.1701 9.31079 6.27255 8.06782 4.30611 -53.3335 15.0641 0.450104 -0.846745 -3.709 4.9837 -4.15044 10.2129 6.67215 10.5398 
-81.5795 96.1728 -84.8041 -121.599 -85.3831 -122.618 -165.212 9.0095 92.5415 -26.5229 -6.05101 -6.65358 67.7128 8.27931 4.2781 31.5841 1.96099 4.0047 173.037 7.40857 84.0014 -17.5065 -19.2507 -4.09991 66.6726 -3.70445 -1.99413 37.1346 0.396888 -2.41215 -0.159518 8.04427 -90.2492 10.7845 -0.43258 -0.455453 -0.886395 -0.452205 -0.435984 -23.4212 -0.275699 -0.564404 -3.40857 -0.275702 -0.564414 93.818 -46.451 -95.5479 16.2777 -33.1101 -20.3457 -19.9229 8.23273 -108.366 -23.0871 0.365413 -6.69087 -95.852 -46.4683 68.9292 -27.4583 8.97833 6.29859 7.88102 4.12202 -53.0926 14.5501 0.395913 -1.09902 -3.86347 4.77426 -3.56606 10.3096 6.35174 10.0139 
-82.2817 96.2153 -84.8305 -119.005 -85.065 -120.132 -165.164 8.48303 92.7953 -25.3553 -6.3054 -6.68495 67.6362 8.28643 4.7184 30.9048 1.41963 3.55517 173.266 7.63037 84.3353 -17.8788 -19.3845 -4.1108 66.7072 -3.72411 -2.00675 35.4282 0.342835 -1.72672 -0.13698 8.00009 -90.2337 10.8727 -0.380682 -0.429011 -0.798254 -0.399204 -0.411845 -23.333 -0.234147 -0.523584 -3.32039 -0.234159 -0.523597 93.724 -46.6957 -95.6566 16.1448 -33.0904 -20.0818 -19.847 8.16065 -108.363 -23.0061 0.452955 -7.13326 -96.1051 -47.1787 68.778 -26.7475 8.68799 6.54924 8.05775 4.19956 -53.3041 15.2382 0.467093 -0.773497 -3.99567 4.82258 -3.2408 10.2207 6.37572 10.114 
-82.8613 96.3221 -84.8508 -118.452 -84.7851 -119.995 -165.364 7.85409 92.7857 -24.5582 -7.57942 -6.63909 67.4091 7.68276 3.28108 30.9142 1.39475 3.99636 173.382 7.80096 84.3222 -18.3378 -19.4496 -4.2518 66.5024 -3.65444 -1.97135 34.8045 0.315272 -1.20261 -0.167643 8.02535 -90.112 10.8229 -0.38546 -0.186769 -0.848028 -0.393301 -0.169635 -23.3834 -0.311513 -0.293983 -3.37076 -0.311507 -0.293988 93.1908 -46.8319 -96.4877 16.1584 -32.8623 -20.5913 -19.7146 7.90005 -108.336 -23.6666 0.262755 -6.14627 -95.1263 -46.339 69.995 -26.8498 8.67136 6.0293 8.17266 4.34701 -53.0565 14.873 0.421202 -0.996204 -3.2299 5.02175 -3.63526 9.5509 6.52914 9.82575 
